# xmcd
#
# Track frame offsets: 
#        150
#        29463
#        51167
#        76807
#        95834
#        111843
#        134375
#        147606
#        178881
#
# Disc length: 3901 seconds
#
# Revision: 1
# Processed by: cddbd v1.5.2PL0 Copyright (c) Steve Scherf et al.
# Submitted via: ExactAudioCopy v1.0b3
#
DISCID=830f3b09
DTITLE=Swamp Mama Johnson - Wetlands
DYEAR=1995
DGENRE=Blues
TTITLE0=Gasoline
TTITLE1=Niki Hoeky
TTITLE2=Evil, Mean, and Nasty
TTITLE3=Cradle Robbin Mambo
TTITLE4=Enough of You
TTITLE5=Funky Special
TTITLE6=Fast Lane Lover
TTITLE7=Detroit Blues
TTITLE8=Love Don't Love
EXTD=
EXTT0=
EXTT1=
EXTT2=
EXTT3=
EXTT4=
EXTT5=
EXTT6=
EXTT7=
EXTT8=
PLAYORDER=
